<?xml version="1.0" encoding="UTF-8" standalone="no"?>
<svg
   width="68"
   height="68"
   fill="none"
   version="1.1"
   id="svg8"
   sodipodi:docname="eslint.svg"
   inkscape:version="1.2.2 (b0a8486541, 2022-12-01)"
   xmlns:inkscape="http://www.inkscape.org/namespaces/inkscape"
   xmlns:sodipodi="http://sodipodi.sourceforge.net/DTD/sodipodi-0.dtd"
   xmlns="http://www.w3.org/2000/svg"
   xmlns:svg="http://www.w3.org/2000/svg">
  <defs
     id="defs12" />
  <sodipodi:namedview
     id="namedview10"
     pagecolor="#ffffff"
     bordercolor="#000000"
     borderopacity="0.25"
     inkscape:showpageshadow="2"
     inkscape:pageopacity="0.0"
     inkscape:pagecheckerboard="0"
     inkscape:deskcolor="#d1d1d1"
     showgrid="false"
     inkscape:zoom="7.1477833"
     inkscape:cx="90.307719"
     inkscape:cy="32.037905"
     inkscape:window-width="1920"
     inkscape:window-height="1015"
     inkscape:window-x="0"
     inkscape:window-y="37"
     inkscape:window-maximized="1"
     inkscape:current-layer="svg8" />
  <path
     d="m 47.048,25.881695 -12.54,-7.24 a 1.014,1.014 0 0 0 -1.015,0 l -12.54,7.24 a 1.015,1.015 0 0 0 -0.508,0.878 v 14.48 c 0,0.362 0.194,0.697 0.508,0.879 l 12.54,7.24 c 0.314,0.181 0.7,0.181 1.015,0 l 12.54,-7.24 c 0.314,-0.181 0.507,-0.516 0.507,-0.879 v -14.48 c 0,-0.363 -0.193,-0.697 -0.507,-0.879 z"
     fill="#8080f2"
     id="path2" />
  <path
     d="M 1.3943131,32.705 16.378313,6.638 c 0.544,-0.943 1.55,-1.638 2.638,-1.638 h 29.967 c 1.089,0 2.094,0.695 2.639,1.638 l 14.983,26.01 a 3.1,3.1 0 0 1 0,3.074 l -14.983,25.854 c -0.545,0.942 -1.55,1.424 -2.639,1.424 h -29.967 c -1.088,0 -2.094,-0.467 -2.638,-1.41 L 1.3953131,35.694 a 2.94,2.94 0 0 1 0,-2.99 z M 13.801313,45.239 c 0,0.384 0.231,0.738 0.563,0.93 l 19.086,11.011 c 0.332,0.192 0.748,0.192 1.08,0 l 19.1,-11.011 c 0.332,-0.192 0.564,-0.546 0.564,-0.93 V 23.216 c 0,-0.383 -0.229,-0.738 -0.56,-0.93 l -19.087,-11.009 a 1.084,1.084 0 0 0 -1.079,0 l -19.102,11.01 c -0.332,0.192 -0.566,0.547 -0.566,0.93 V 45.24 Z"
     fill="#4b32c3"
     id="path4" />
</svg>
