<?xml version="1.0" encoding="UTF-8" standalone="no"?>
<svg
   width="60"
   height="60"
   version="1.1"
   viewBox="0 0 60 60"
   id="svg25"
   sodipodi:docname="storybook.svg"
   inkscape:version="1.2.2 (b0a8486541, 2022-12-01)"
   xmlns:inkscape="http://www.inkscape.org/namespaces/inkscape"
   xmlns:sodipodi="http://sodipodi.sourceforge.net/DTD/sodipodi-0.dtd"
   xmlns:xlink="http://www.w3.org/1999/xlink"
   xmlns="http://www.w3.org/2000/svg"
   xmlns:svg="http://www.w3.org/2000/svg"
   xmlns:rdf="http://www.w3.org/1999/02/22-rdf-syntax-ns#"
   xmlns:cc="http://creativecommons.org/ns#"
   xmlns:dc="http://purl.org/dc/elements/1.1/">
  <sodipodi:namedview
     id="namedview27"
     pagecolor="#ffffff"
     bordercolor="#000000"
     borderopacity="0.25"
     inkscape:showpageshadow="2"
     inkscape:pageopacity="0.0"
     inkscape:pagecheckerboard="0"
     inkscape:deskcolor="#d1d1d1"
     showgrid="false"
     inkscape:zoom="4.8366667"
     inkscape:cx="107.82219"
     inkscape:cy="31.84011"
     inkscape:window-width="1920"
     inkscape:window-height="1015"
     inkscape:window-x="0"
     inkscape:window-y="37"
     inkscape:window-maximized="1"
     inkscape:current-layer="logo-storybook-default" />
  <title
     id="title2">logo-storybook-default</title>
  <defs
     id="defs6">
    <path
       id="path-1"
       d="M 1.8484322,54.919427 0.00214588,5.7242595 C -0.05882971,4.0995361 1.18695,2.722602 2.809651,2.6211832 l 41.843936,-2.615246 c 1.651716,-0.10323224 3.074382,1.1520618 3.177614,2.8037776 0.0039,0.06223 0.0058,0.1245668 0.0058,0.1869186 V 56.603468 c 0,1.654939 -1.341593,2.996532 -2.996532,2.996532 -0.04483,0 -0.08966,-0.001 -0.134448,-0.003 L 4.7084075,57.80056 C 3.1506572,57.730597 1.906912,56.47765 1.8484322,54.919427 Z" />
    <path
       id="path-3"
       d="M 1.8484322,54.919427 0.00214588,5.7242595 C -0.05882971,4.0995361 1.18695,2.722602 2.809651,2.6211832 l 41.843936,-2.615246 c 1.651716,-0.10323224 3.074382,1.1520618 3.177614,2.8037776 0.0039,0.06223 0.0058,0.1245668 0.0058,0.1869186 V 56.603468 c 0,1.654939 -1.341593,2.996532 -2.996532,2.996532 -0.04483,0 -0.08966,-0.001 -0.134448,-0.003 L 4.7084075,57.80056 C 3.1506572,57.730597 1.906912,56.47765 1.8484322,54.919427 Z" />
  </defs>
  <g
     id="logo-storybook-default"
     fill="none"
     fill-rule="evenodd"
     stroke="none"
     stroke-width="1">
    <g
       transform="translate(6.0814995,0.2)"
       id="g22">
      <g
         id="storybook-icon/default">
        <g
           id="path1_fill-path"
           fill="#ff4785"
           fill-rule="nonzero">
          <path
             id="Combined-Shape"
             d="m 47.831201,2.8097148 c 0.0039,0.06223 0.0058,0.1245668 0.0058,0.1869186 V 56.603468 c 0,1.654939 -1.341593,2.996532 -2.996532,2.996532 -0.04483,0 -0.08966,-0.001 -0.134448,-0.003 L 4.7084075,57.80056 C 3.1506572,57.730597 1.906912,56.47765 1.8484322,54.919427 L 0.00214588,5.7242595 C -0.05882971,4.0995361 1.18695,2.722602 2.809651,2.6211832 L 35.609,0.57 35.324038,7.3257894 c -0.0032,0.077873 0.01395,0.1547674 0.04924,0.2232766 l 0.04124,0.06544 c 0.149198,0.1966858 0.429593,0.2351822 0.626278,0.085984 v 0 l 2.6237,-1.9902362 2.216008,1.7456922 c 0.08304,0.065413 0.186569,0.099283 0.292212,0.095593 0.246721,-0.00862 0.439743,-0.2156069 0.431127,-0.4623278 v 0 L 41.356,0.211 44.653587,0.0059372 c 1.651716,-0.10323224 3.074382,1.1520618 3.177614,2.8037776 z" />
        </g>
        <g
           id="path2_fill-path-Clipped">
          <mask
             id="mask-2"
             fill="#ffffff">
            <use
               xlink:href="#path-1"
               id="use11" />
          </mask>
          <path
             id="path2_fill-path"
             fill="#ffffff"
             fill-rule="nonzero"
             d="m 35.324038,7.3257894 0.285817,-6.75710607 5.746431,-0.35884166 0.24756,6.87936983 c 0.0086,0.2467209 -0.184406,0.4537121 -0.431127,0.4623278 -0.105643,0.00369 -0.209175,-0.03018 -0.292212,-0.095593 l -2.216008,-1.7456922 -2.6237,1.9902362 c -0.196685,0.1491982 -0.47708,0.1107018 -0.626278,-0.085984 -0.0628,-0.082795 -0.0948,-0.1848856 -0.09048,-0.2887165 z"
             mask="url(#mask-2)" />
        </g>
        <g
           id="path9_fill-path-Clipped">
          <mask
             id="mask-4"
             fill="#ffffff">
            <use
               xlink:href="#path-3"
               id="use16" />
          </mask>
          <path
             id="path9_fill-path"
             fill="#ffffff"
             fill-rule="nonzero"
             d="m 27.974904,22.464055 c 0,1.165826 7.852846,0.607076 8.907021,-0.211836 0,-7.938997 -4.259879,-12.110816 -12.060438,-12.110816 -7.800559,0 -12.171085,4.236726 -12.171085,10.591818 0,11.068452 14.93724,11.280289 14.93724,17.317626 0,1.694691 -0.829846,2.700914 -2.655509,2.700914 -2.378894,0 -3.319387,-1.214917 -3.20874,-5.345727 0,-0.896125 -9.072991,-1.1755 -9.349606,0 -0.704376,10.010423 5.532311,12.897813 12.668992,12.897813 6.915389,0 12.337054,-3.686072 12.337054,-10.358918 0,-11.862839 -15.158532,-11.545084 -15.158532,-17.423544 0,-2.38316 1.770339,-2.700914 2.821478,-2.700914 1.106463,0 3.098095,0.19502 2.932125,4.643584 z"
             mask="url(#mask-4)" />
        </g>
      </g>
    </g>
  </g>
  <metadata
     id="metadata187">
    <rdf:RDF>
      <cc:Work
         rdf:about="">
        <dc:title>logo-storybook-default</dc:title>
      </cc:Work>
    </rdf:RDF>
  </metadata>
</svg>
