<?xml version="1.0" encoding="UTF-8" standalone="no"?>
<svg
   width="30"
   height="30"
   viewBox="0 0 29.999999 30"
   version="1.1"
   id="svg18"
   sodipodi:docname="stylelint.svg"
   inkscape:version="1.2.2 (b0a8486541, 2022-12-01)"
   xmlns:inkscape="http://www.inkscape.org/namespaces/inkscape"
   xmlns:sodipodi="http://sodipodi.sourceforge.net/DTD/sodipodi-0.dtd"
   xmlns="http://www.w3.org/2000/svg"
   xmlns:svg="http://www.w3.org/2000/svg">
  <defs
     id="defs22" />
  <sodipodi:namedview
     id="namedview20"
     pagecolor="#ffffff"
     bordercolor="#000000"
     borderopacity="0.25"
     inkscape:showpageshadow="2"
     inkscape:pageopacity="0.0"
     inkscape:pagecheckerboard="0"
     inkscape:deskcolor="#d1d1d1"
     showgrid="false"
     inkscape:zoom="10.19446"
     inkscape:cx="57.923617"
     inkscape:cy="33.645725"
     inkscape:window-width="1920"
     inkscape:window-height="1015"
     inkscape:window-x="0"
     inkscape:window-y="37"
     inkscape:window-maximized="1"
     inkscape:current-layer="g16" />
  <g
     fill="#000000"
     fill-rule="evenodd"
     id="g16"
     transform="translate(-0.36,-0.34)">
    <path
       d="m 15.553,28.920734 c 3.11,-11.19 3.02,-11.24 5.267,-19.217 l 0.54,0.314 c 0.294,0.17 0.534,0.03 0.534,-0.31 v -3.803 c 0.596,-2.102 1.064,-3.726 1.2,-4.215 h 2.435 l 4.045,3.772 -2.656,2.31 2.01,2.186 -13.242,18.963 c -0.065,0.107 -0.155,0.083 -0.135,0 z"
       id="path2" />
    <path
       d="m 17,4.804734 c 0.12,0 0.217,0.066 0.217,0.15 v 1.95 c 0,0.08 -0.09,0.148 -0.21,0.148 h -3.27 c -0.12,0 -0.22,-0.067 -0.22,-0.15 v -1.95 c 0,-0.082 0.1,-0.148 0.22,-0.148 h 3.27 z m 4.036,-2.16 -3.598,2.09 c 0.042,0.065 0.067,0.14 0.067,0.22 v 1.95 c 0,0.1 -0.04,0.19 -0.11,0.265 l 3.63,2.11 c 0.24,0.145 0.45,0.027 0.45,-0.26 v -6.112 c 0,-0.288 -0.21,-0.406 -0.45,-0.262 z m -7.813,4.26 v -1.95 c 0,-0.08 0.025,-0.155 0.066,-0.22 l -3.598,-2.09 c -0.247,-0.143 -0.45,-0.025 -0.45,0.262 v 6.11 c 0,0.29 0.202,0.4 0.45,0.26 l 3.635,-2.11 c -0.065,-0.08 -0.104,-0.17 -0.104,-0.27 z"
       id="path4" />
    <path
       d="m 15.032,28.920734 h 0.134 c -3.11,-11.19 -3.02,-11.24 -5.266,-19.217 l -0.54,0.314 c -0.294,0.17 -0.535,0.03 -0.535,-0.31 v -3.803 c -0.599,-2.103 -1.069,-3.727 -1.209,-4.217 h -2.43 l -4.04,3.773 2.655,2.31 -2.01,2.186 13.24,18.96 z"
       id="path6" />
    <ellipse
       cx="15.261001"
       cy="10.134734"
       rx="0.98199999"
       ry="0.98799998"
       id="ellipse8" />
    <ellipse
       cx="15.261001"
       cy="16.011734"
       rx="0.98199999"
       ry="0.98799998"
       id="ellipse10" />
    <ellipse
       cx="15.261001"
       cy="21.888735"
       rx="0.98199999"
       ry="0.98799998"
       id="ellipse12" />
  </g>
</svg>
