<svg
   width="48"
   height="48"
   viewBox="0 0 48 48"
   xmlns="http://www.w3.org/2000/svg">
   <style>
      .path { fill: hsl(208, 52%, 27%); }

      @media (prefers-color-scheme: dark) {
      .path { fill: hsl(205, 65%, 78%) }
      }
   </style>
   <path
      class="path"
      d="M 4.103516,0 C 1.852011,0 0,1.852011 0,4.103516 V 43.896485 C 0,46.147989 1.852011,48 4.103516,48 H 43.896485 C 46.147989,48 48,46.147989 48,43.896485 V 4.103516 C 48,1.852011 46.147989,0 43.896485,0 Z m 0,2.5 H 43.896485 C 44.796896,2.5 45.5,3.203105 45.5,4.103516 V 43.896485 C 45.5,44.796896 44.796896,45.5 43.896485,45.5 H 4.103516 C 3.203105,45.5 2.5,44.796896 2.5,43.896485 V 4.103516 C 2.5,3.203105 3.203105,2.5 4.103516,2.5 Z" />
   <path
      class="path"
      d="M 6.9999999,33.281787 13.341518,14.718212 h 4.98351 l 6.503481,18.563575 h -4.223526 l -1.432759,-4.310735 h -6.590692 l -1.382923,4.310735 z m 6.5283991,-7.288384 h 4.659583 l -0.560646,-1.669478 q -0.448515,-1.420298 -0.897031,-3.077318 -0.448516,-1.657013 -0.934409,-3.550747 -0.460974,1.91865 -0.884573,3.575669 -0.423598,1.657014 -0.847196,3.052396 z m 13.592524,7.288384 V 14.718212 h 7.238549 q 2.117992,0 3.600587,0.80982 1.482593,0.797361 2.255037,2.21766 Q 41,19.153532 41,20.984976 q 0,1.843896 -0.797362,3.251737 -0.784903,1.395383 -2.292414,2.192745 -1.507513,0.784903 -3.637963,0.784903 H 30.92085 v 6.067426 z m 3.799927,-9.132286 h 2.740931 q 1.744228,0 2.578966,-0.884567 0.834738,-0.884574 0.834738,-2.279958 0,-1.40784 -0.834738,-2.267498 -0.834738,-0.859657 -2.591426,-0.859657 H 30.92085 Z" />
</svg>
